<svg xmlns="http://www.w3.org/2000/svg" xmlns:xlink="http://www.w3.org/1999/xlink" width="100" zoomAndPan="magnify" viewBox="0 0 75 74.999997" height="100" preserveAspectRatio="xMidYMid meet" version="1.2"><defs><clipPath id="a50936eec9"><path d="M 37.5 0 C 16.789062 0 0 16.789062 0 37.5 C 0 58.210938 16.789062 75 37.5 75 C 58.210938 75 75 58.210938 75 37.5 C 75 16.789062 58.210938 0 37.5 0 Z M 37.5 0 "/></clipPath><clipPath id="a3fe9e530e"><path d="M 13.8125 16.863281 L 61.0625 16.863281 L 61.0625 58.113281 L 13.8125 58.113281 Z M 13.8125 16.863281 "/></clipPath></defs><g id="4fdf47da0c"><g clip-rule="nonzero" clip-path="url(#a50936eec9)"><rect x="0" width="75" y="0" height="74.999997" style="fill:#1f1f1f;fill-opacity:1;stroke:none;"/></g><g clip-rule="nonzero" clip-path="url(#a3fe9e530e)"><path style=" stroke:none;fill-rule:nonzero;fill:#ff005a;fill-opacity:1;" d="M 47.773438 16.875 C 43.597656 16.875 39.875 22.414062 37.4375 31.070312 C 35.003906 22.414062 31.277344 16.875 27.101562 16.875 C 19.761719 16.875 13.8125 35.300781 13.8125 58.03125 L 19.71875 58.03125 C 19.71875 36.921875 23.027344 19.816406 27.101562 19.816406 C 31.179688 19.816406 34.484375 35.609375 34.484375 55.089844 L 40.390625 55.089844 C 40.390625 35.609375 43.699219 19.816406 47.773438 19.816406 C 51.851562 19.816406 55.15625 36.921875 55.15625 58.03125 L 61.0625 58.03125 C 61.0625 35.300781 55.113281 16.875 47.773438 16.875 Z M 47.773438 16.875 "/></g></g></svg>