<svg xmlns="http://www.w3.org/2000/svg" xmlns:xlink="http://www.w3.org/1999/xlink" width="100" zoomAndPan="magnify" viewBox="0 0 75 74.999997" height="100" preserveAspectRatio="xMidYMid meet" version="1.2"><defs><clipPath id="70c46195e5"><path d="M 37.5 0 C 16.789062 0 0 16.789062 0 37.5 C 0 58.210938 16.789062 75 37.5 75 C 58.210938 75 75 58.210938 75 37.5 C 75 16.789062 58.210938 0 37.5 0 Z M 37.5 0 "/></clipPath><clipPath id="4e2f234803"><path d="M 27.382812 17.40625 L 47.632812 17.40625 L 47.632812 37.65625 L 27.382812 37.65625 Z M 27.382812 17.40625 "/></clipPath><clipPath id="5cff93920c"><path d="M 13.734375 14.386719 L 60.984375 14.386719 L 60.984375 60.886719 L 13.734375 60.886719 Z M 13.734375 14.386719 "/></clipPath></defs><g id="1d12251e9f"><g clip-rule="nonzero" clip-path="url(#70c46195e5)"><rect x="0" width="75" y="0" height="74.999997" style="fill:#1f1f1f;fill-opacity:1;stroke:none;"/></g><g clip-rule="nonzero" clip-path="url(#4e2f234803)"><path style=" stroke:none;fill-rule:nonzero;fill:#1f1f1f;fill-opacity:1;" d="M 47.582031 26.855469 C 47.566406 26.5 47.558594 26.140625 47.539062 25.785156 C 47.511719 25.328125 47.488281 24.867188 47.476562 24.40625 C 47.464844 24.015625 47.445312 23.625 47.433594 23.230469 C 47.421875 22.785156 47.425781 22.335938 47.414062 21.890625 C 47.390625 21.222656 47.449219 20.554688 47.367188 19.886719 C 47.3125 19.441406 47.210938 19.007812 47.046875 18.589844 C 46.976562 18.398438 46.871094 18.230469 46.710938 18.109375 C 46.40625 17.882812 46.0625 17.75 45.699219 17.65625 C 45.460938 17.59375 45.214844 17.597656 44.964844 17.605469 C 44.570312 17.621094 44.171875 17.628906 43.777344 17.585938 C 43.574219 17.566406 43.367188 17.585938 43.160156 17.566406 C 42.777344 17.527344 42.394531 17.558594 42.011719 17.597656 C 41.660156 17.636719 41.308594 17.695312 40.953125 17.734375 C 40.417969 17.792969 39.875 17.808594 39.332031 17.816406 C 38.347656 17.832031 37.359375 17.820312 36.375 17.820312 C 36.246094 17.820312 36.121094 17.8125 35.996094 17.808594 C 35.492188 17.78125 34.992188 17.703125 34.488281 17.648438 C 33.960938 17.589844 33.433594 17.550781 32.90625 17.511719 C 32.460938 17.480469 32.011719 17.476562 31.566406 17.449219 C 31.152344 17.421875 30.734375 17.410156 30.316406 17.425781 C 30.210938 17.425781 30.101562 17.441406 29.996094 17.457031 C 29.582031 17.519531 29.203125 17.675781 28.851562 17.902344 C 28.3125 18.25 27.917969 18.714844 27.707031 19.328125 C 27.480469 19.976562 27.410156 20.644531 27.398438 21.324219 C 27.382812 21.992188 27.410156 22.660156 27.453125 23.328125 C 27.476562 23.648438 27.488281 23.976562 27.496094 24.300781 C 27.5 24.761719 27.527344 25.21875 27.5625 25.679688 C 27.582031 25.964844 27.59375 26.253906 27.609375 26.539062 C 27.640625 27.0625 27.699219 27.585938 27.726562 28.113281 C 27.753906 28.664062 27.765625 29.214844 27.789062 29.765625 C 27.808594 30.214844 27.804688 30.664062 27.808594 31.109375 C 27.820312 31.882812 27.808594 32.65625 27.859375 33.425781 C 27.871094 33.621094 27.878906 33.816406 27.90625 34.011719 C 27.945312 34.324219 27.996094 34.640625 28.046875 34.953125 C 28.117188 35.382812 28.226562 35.804688 28.449219 36.1875 C 28.582031 36.410156 28.753906 36.589844 28.992188 36.699219 C 29.316406 36.847656 29.660156 36.945312 30.003906 37.039062 C 30.472656 37.167969 30.957031 37.230469 31.441406 37.296875 C 32.109375 37.390625 32.777344 37.457031 33.453125 37.460938 C 33.640625 37.460938 33.832031 37.453125 34.019531 37.464844 C 34.375 37.488281 34.726562 37.488281 35.078125 37.472656 C 35.65625 37.445312 36.230469 37.40625 36.804688 37.402344 C 37.21875 37.394531 37.628906 37.394531 38.042969 37.410156 C 38.503906 37.429688 38.96875 37.414062 39.429688 37.414062 C 39.429688 37.417969 39.429688 37.417969 39.429688 37.417969 C 39.824219 37.417969 40.21875 37.421875 40.617188 37.417969 C 40.859375 37.414062 41.105469 37.40625 41.347656 37.390625 C 41.757812 37.371094 42.160156 37.316406 42.570312 37.308594 C 42.9375 37.300781 43.304688 37.296875 43.671875 37.289062 C 43.769531 37.285156 43.867188 37.269531 43.960938 37.253906 C 44.261719 37.199219 44.546875 37.09375 44.839844 37.015625 C 45.09375 36.945312 45.359375 36.914062 45.589844 36.765625 C 46.070312 36.457031 46.4375 36.050781 46.628906 35.511719 C 46.867188 34.835938 47.074219 34.144531 47.195312 33.433594 C 47.257812 33.066406 47.34375 32.703125 47.363281 32.328125 C 47.382812 31.941406 47.417969 31.550781 47.390625 31.160156 C 47.371094 30.914062 47.4375 30.679688 47.46875 30.441406 C 47.558594 29.824219 47.582031 29.199219 47.59375 28.574219 C 47.605469 28 47.609375 27.425781 47.582031 26.855469 Z M 47.582031 26.855469 "/></g><g clip-rule="nonzero" clip-path="url(#5cff93920c)"><path style=" stroke:none;fill-rule:nonzero;fill:#ff005a;fill-opacity:1;" d="M 28.695312 48.574219 L 26.628906 47.558594 C 26.460938 47.476562 26.257812 47.484375 26.101562 47.597656 L 24.195312 48.867188 L 22.128906 47.855469 C 21.960938 47.773438 21.757812 47.78125 21.601562 47.890625 L 19.691406 49.164062 C 19.589844 49.136719 17.433594 48.003906 17.398438 48.09375 C 17.167969 48.046875 16.214844 48.8125 16.011719 48.90625 L 16.429688 46.859375 C 17.027344 46.820312 29.421875 46.011719 29.578125 46.011719 L 29.332031 48.148438 Z M 29.691406 44.929688 C 30.132812 40.585938 31.101562 36.300781 32.632812 32.214844 C 33.285156 30.46875 34.625 26.890625 35.277344 25.132812 C 35.261719 24.46875 35.175781 22.070312 35.160156 21.453125 C 35.132812 20.988281 35.730469 20.722656 36.0625 21.046875 L 37.730469 22.613281 C 38.175781 22.484375 39.199219 22.179688 39.621094 22.050781 L 38.800781 17.761719 L 14.695312 19.328125 C 14.695312 19.328125 14.269531 26.515625 14.269531 26.515625 C 13.746094 32.664062 15.230469 39.738281 16.410156 45.789062 Z M 29.699219 52.679688 L 28.695312 54.503906 L 29.949219 54.136719 C 30.132812 54.089844 30.328125 54.125 30.464844 54.265625 L 32.132812 55.832031 L 34.339844 55.175781 C 34.523438 55.121094 34.714844 55.167969 34.855469 55.296875 L 36.523438 56.863281 L 38.726562 56.210938 C 38.914062 56.15625 39.105469 56.199219 39.246094 56.328125 L 40.914062 57.898438 L 43.117188 57.242188 C 43.300781 57.1875 43.496094 57.234375 43.632812 57.363281 L 45.304688 58.929688 L 47.507812 58.277344 C 47.691406 58.21875 47.886719 58.265625 48.023438 58.394531 L 49.691406 59.972656 L 51.898438 59.316406 C 51.945312 59.300781 52 59.289062 52.042969 59.289062 C 52.175781 59.289062 52.3125 59.34375 52.414062 59.4375 L 53.363281 60.332031 L 53.289062 58.246094 C 47.425781 56.890625 35.582031 54.070312 29.699219 52.679688 Z M 38.792969 16.691406 L 39.207031 14.644531 L 38.121094 15.375 C 37.960938 15.476562 37.757812 15.492188 37.585938 15.402344 L 35.519531 14.386719 L 33.609375 15.660156 C 33.453125 15.761719 33.25 15.78125 33.082031 15.6875 L 31.019531 14.671875 L 29.109375 15.945312 C 28.953125 16.046875 28.75 16.066406 28.574219 15.972656 L 26.519531 14.957031 L 24.597656 16.25 C 24.441406 16.351562 24.238281 16.371094 24.066406 16.277344 L 22 15.261719 L 20.097656 16.546875 C 19.941406 16.644531 19.738281 16.664062 19.5625 16.574219 L 17.5 15.566406 L 15.589844 16.839844 C 15.433594 16.941406 15.230469 16.960938 15.0625 16.867188 L 13.882812 16.296875 L 14.566406 18.269531 Z M 47.894531 28.644531 L 59.632812 31.4375 C 59.632812 31.4375 58.839844 38.59375 58.839844 38.59375 C 58.324219 44.765625 55.667969 51.460938 53.492188 57.242188 L 29.996094 51.652344 C 30.234375 49.550781 30.601562 46.34375 30.832031 44.25 C 31.277344 40.273438 32.21875 36.355469 33.617188 32.589844 C 34.21875 30.988281 35.546875 27.417969 36.136719 25.851562 Z M 39.648438 37.304688 L 38.007812 36.90625 C 37.261719 36.734375 36.496094 37.203125 36.3125 37.960938 L 35.546875 41.195312 C 35.453125 41.554688 35.519531 41.933594 35.710938 42.265625 C 36.117188 43.023438 37.363281 43.023438 38.21875 43.289062 C 39.445312 48.566406 46.410156 50.261719 49.90625 46.074219 L 51.554688 46.472656 C 51.925781 46.554688 52.292969 46.5 52.625 46.296875 C 52.949219 46.101562 53.171875 45.789062 53.261719 45.417969 L 54.027344 42.183594 C 54.210938 41.425781 53.742188 40.660156 52.984375 40.484375 L 51.34375 40.097656 C 50.089844 34.777344 43.164062 33.136719 39.648438 37.304688 Z M 48.726562 45.789062 L 39.410156 43.574219 C 40.671875 47.410156 45.875 48.65625 48.726562 45.789062 Z M 59.691406 28.957031 C 59.503906 29.011719 59.3125 28.96875 59.171875 28.839844 L 57.503906 27.269531 L 55.300781 27.925781 C 55.117188 27.980469 54.921875 27.933594 54.785156 27.804688 L 53.113281 26.238281 L 50.910156 26.890625 C 50.726562 26.949219 50.53125 26.902344 50.394531 26.773438 L 48.726562 25.195312 L 46.519531 25.851562 C 46.335938 25.90625 46.140625 25.859375 46.003906 25.730469 L 44.335938 24.164062 L 42.132812 24.816406 C 41.945312 24.871094 41.753906 24.828125 41.613281 24.699219 L 39.945312 23.128906 C 39.457031 23.277344 38.25 23.628906 37.742188 23.785156 C 37.566406 23.839844 37.363281 23.792969 37.226562 23.664062 L 36.273438 22.769531 L 36.347656 24.855469 L 59.964844 30.480469 L 60.972656 28.644531 Z M 50.152344 39.804688 C 48.890625 35.957031 43.699219 34.722656 40.839844 37.589844 Z M 37.769531 37.949219 C 37.59375 37.902344 37.398438 38.015625 37.355469 38.207031 L 36.578125 41.445312 C 36.53125 41.621094 36.652344 41.824219 36.828125 41.859375 C 40 42.617188 46.714844 44.210938 49.839844 44.957031 L 51.804688 45.429688 C 51.980469 45.476562 52.183594 45.355469 52.21875 45.171875 L 52.996094 41.933594 C 53.039062 41.75 52.921875 41.566406 52.738281 41.519531 C 49.5625 40.761719 42.851562 39.15625 39.722656 38.421875 Z M 37.769531 37.949219 "/></g></g></svg>