<svg xmlns="http://www.w3.org/2000/svg" xmlns:xlink="http://www.w3.org/1999/xlink" width="500" zoomAndPan="magnify" viewBox="0 0 375 374.999991" height="500" preserveAspectRatio="xMidYMid meet" version="1.2"><defs><clipPath id="85bd8e277c"><path d="M 187.5 0 C 83.945312 0 0 83.945312 0 187.5 C 0 291.054688 83.945312 375 187.5 375 C 291.054688 375 375 291.054688 375 187.5 C 375 83.945312 291.054688 0 187.5 0 Z M 187.5 0 "/></clipPath><clipPath id="881174ab8d"><path d="M 228 69.726562 L 281 69.726562 L 281 119 L 228 119 Z M 228 69.726562 "/></clipPath><clipPath id="450a490935"><path d="M 80 104 L 295.402344 104 L 295.402344 305.226562 L 80 305.226562 Z M 80 104 "/></clipPath></defs><g id="bbfe31b3d4"><g clip-rule="nonzero" clip-path="url(#85bd8e277c)"><rect x="0" width="375" y="0" height="374.999991" style="fill:#1f1f1f;fill-opacity:1;stroke:none;"/></g><g clip-rule="nonzero" clip-path="url(#881174ab8d)"><path style=" stroke:none;fill-rule:nonzero;fill:#ff005a;fill-opacity:1;" d="M 254.488281 118.996094 C 268.691406 118.996094 280.210938 107.933594 280.210938 94.339844 C 280.210938 80.746094 268.691406 69.722656 254.488281 69.722656 C 240.246094 69.722656 228.730469 80.746094 228.730469 94.339844 C 228.730469 107.933594 240.246094 118.996094 254.488281 118.996094 "/></g><g clip-rule="nonzero" clip-path="url(#450a490935)"><path style=" stroke:none;fill-rule:nonzero;fill:#ff005a;fill-opacity:1;" d="M 180.324219 125.785156 L 152.1875 163.140625 C 150.519531 165.5 148.003906 166.945312 145.160156 166.945312 C 140.128906 166.945312 136.054688 162.261719 136.054688 156.511719 C 136.054688 153.371094 137.230469 150.574219 139.117188 148.65625 L 169.472656 108.503906 C 171.140625 106.207031 173.65625 104.730469 176.5 104.730469 L 220.414062 104.699219 C 223.640625 104.699219 226.539062 106.207031 228.671875 108.566406 L 256.675781 140.738281 L 279.890625 114.125 C 281.53125 112.523438 283.636719 111.582031 285.933594 111.582031 C 291.128906 111.582031 295.3125 116.417969 295.3125 122.390625 C 295.3125 124.996094 294.546875 127.355469 293.207031 129.238281 L 265.234375 161.632812 C 256.730469 171.375 249.894531 163.109375 249.894531 163.109375 L 232.71875 143.285156 L 205.894531 178.945312 L 230.476562 207.195312 C 230.476562 207.195312 235.675781 212.722656 232.691406 223.722656 L 218.910156 294.320312 C 217.816406 300.449219 213.113281 305.066406 207.480469 305.066406 C 201 305.066406 195.777344 299.035156 195.777344 291.617188 C 195.777344 290.425781 195.886719 289.292969 196.132812 288.226562 L 207.480469 230.316406 L 179.535156 199.117188 L 155.5 229.910156 C 155.5 229.910156 151.617188 235.40625 141.304688 235 L 92.550781 235.09375 C 87.109375 235.1875 82.160156 230.914062 80.957031 224.566406 C 79.507812 217.339844 83.390625 210.238281 89.707031 208.636719 C 90.691406 208.386719 91.675781 208.292969 92.632812 208.324219 L 134.554688 208.449219 L 196.542969 125.878906 L 180.328125 125.785156 Z M 180.324219 125.785156 "/></g></g></svg>