<svg xmlns="http://www.w3.org/2000/svg" xmlns:xlink="http://www.w3.org/1999/xlink" width="500" zoomAndPan="magnify" viewBox="0 0 375 374.999991" height="500" preserveAspectRatio="xMidYMid meet" version="1.2"><defs><clipPath id="3f73434755"><path d="M 187.5 0 C 83.945312 0 0 83.945312 0 187.5 C 0 291.054688 83.945312 375 187.5 375 C 291.054688 375 375 291.054688 375 187.5 C 375 83.945312 291.054688 0 187.5 0 Z M 187.5 0 "/></clipPath><clipPath id="e594461281"><path d="M 79.402344 93.320312 L 295.402344 93.320312 L 295.402344 281.570312 L 79.402344 281.570312 Z M 79.402344 93.320312 "/></clipPath></defs><g id="f8363cef58"><g clip-rule="nonzero" clip-path="url(#3f73434755)"><rect x="0" width="375" y="0" height="374.999991" style="fill:#1f1f1f;fill-opacity:1;stroke:none;"/></g><g clip-rule="nonzero" clip-path="url(#e594461281)"><path style=" stroke:none;fill-rule:nonzero;fill:#ff005a;fill-opacity:1;" d="M 234.652344 93.371094 C 215.5625 93.371094 198.539062 118.6875 187.402344 158.261719 C 176.277344 118.6875 159.238281 93.371094 140.152344 93.371094 C 106.605469 93.371094 79.402344 177.601562 79.402344 281.5 L 106.402344 281.5 C 106.402344 185.015625 121.519531 106.808594 140.152344 106.808594 C 158.796875 106.808594 173.902344 179.011719 173.902344 268.0625 L 200.898438 268.0625 C 200.898438 179.011719 216.019531 106.808594 234.652344 106.808594 C 253.292969 106.808594 268.402344 185.015625 268.402344 281.5 L 295.402344 281.5 C 295.402344 177.601562 268.199219 93.371094 234.652344 93.371094 Z M 234.652344 93.371094 "/></g></g></svg>