<svg xmlns="http://www.w3.org/2000/svg" xmlns:xlink="http://www.w3.org/1999/xlink" width="500" zoomAndPan="magnify" viewBox="0 0 375 374.999991" height="500" preserveAspectRatio="xMidYMid meet" version="1.2"><defs><clipPath id="acba6121d7"><path d="M 187.5 0 C 83.945312 0 0 83.945312 0 187.5 C 0 291.054688 83.945312 375 187.5 375 C 291.054688 375 375 291.054688 375 187.5 C 375 83.945312 291.054688 0 187.5 0 Z M 187.5 0 "/></clipPath><clipPath id="59384d6c14"><path d="M 79.402344 79.402344 L 295.402344 79.402344 L 295.402344 295.402344 L 79.402344 295.402344 Z M 79.402344 79.402344 "/></clipPath></defs><g id="3946104bf9"><g clip-rule="nonzero" clip-path="url(#acba6121d7)"><rect x="0" width="375" y="0" height="374.999991" style="fill:#1f1f1f;fill-opacity:1;stroke:none;"/></g><g clip-rule="nonzero" clip-path="url(#59384d6c14)"><path style=" stroke:none;fill-rule:nonzero;fill:#ff005a;fill-opacity:1;" d="M 271.132812 79.402344 L 103.671875 79.402344 C 90.296875 79.402344 79.402344 90.296875 79.402344 103.671875 L 79.402344 271.132812 C 79.402344 284.503906 90.296875 295.402344 103.671875 295.402344 L 271.132812 295.402344 C 284.503906 295.402344 295.402344 284.503906 295.402344 271.132812 L 295.402344 103.671875 C 295.402344 90.296875 284.503906 79.402344 271.132812 79.402344 Z M 285.695312 271.132812 C 285.695312 279.164062 279.164062 285.695312 271.132812 285.695312 L 103.671875 285.695312 C 95.636719 285.695312 89.109375 279.164062 89.109375 271.132812 L 89.109375 103.671875 C 89.109375 95.636719 95.636719 89.109375 103.671875 89.109375 L 271.132812 89.109375 C 279.164062 89.109375 285.695312 95.636719 285.695312 103.671875 Z M 173.105469 160.609375 L 173.105469 203.347656 C 173.105469 206.695312 170.386719 209.414062 167.039062 209.414062 C 163.691406 209.414062 160.972656 206.695312 160.972656 203.347656 L 160.972656 167.914062 C 160.972656 166.578125 159.878906 165.484375 158.546875 165.484375 C 157.210938 165.484375 156.117188 166.578125 156.117188 167.914062 L 156.117188 260.210938 C 156.117188 264.238281 152.867188 267.492188 148.835938 267.492188 C 144.808594 267.492188 141.554688 264.238281 141.554688 260.210938 L 141.554688 211.621094 C 141.554688 210.289062 140.464844 209.195312 139.128906 209.195312 L 136.703125 209.195312 C 135.367188 209.195312 134.277344 210.289062 134.277344 211.621094 L 134.277344 260.210938 C 134.277344 264.238281 131.023438 267.492188 126.996094 267.492188 C 122.964844 267.492188 119.714844 264.238281 119.714844 260.210938 L 119.714844 167.914062 C 119.714844 166.578125 118.621094 165.484375 117.285156 165.484375 C 115.953125 165.484375 114.859375 166.578125 114.859375 167.914062 L 114.859375 203.347656 C 114.859375 206.695312 112.140625 209.414062 108.792969 209.414062 C 105.441406 209.414062 102.726562 206.695312 102.726562 203.347656 L 102.726562 160.609375 C 102.726562 149.878906 111.414062 141.167969 122.164062 141.167969 L 153.738281 141.167969 C 164.417969 141.191406 173.105469 149.878906 173.105469 160.609375 Z M 123.328125 121.898438 C 123.328125 113.839844 129.859375 107.3125 137.914062 107.3125 C 145.972656 107.3125 152.5 113.839844 152.5 121.898438 C 152.5 129.957031 145.972656 136.484375 137.914062 136.484375 C 129.859375 136.460938 123.328125 129.929688 123.328125 121.898438 Z M 225.917969 121.898438 C 225.917969 113.839844 232.445312 107.3125 240.503906 107.3125 C 248.5625 107.3125 255.089844 113.839844 255.089844 121.898438 C 255.089844 129.957031 248.5625 136.484375 240.503906 136.484375 C 232.421875 136.460938 225.917969 129.929688 225.917969 121.898438 Z M 280.9375 201.1875 C 281.8125 204.414062 279.894531 207.738281 276.640625 208.613281 C 273.414062 209.460938 270.089844 207.546875 269.214844 204.316406 L 259.578125 168.351562 C 259.359375 167.839844 258.851562 167.5 258.269531 167.5 C 257.46875 167.5 256.8125 168.15625 256.8125 168.957031 L 256.398438 167.453125 L 270.015625 218.273438 C 270.429688 219.824219 269.261719 221.332031 267.6875 221.332031 L 258.730469 221.332031 L 258.730469 260.210938 C 258.730469 264.238281 255.453125 267.492188 251.449219 267.492188 C 247.421875 267.492188 244.167969 264.238281 244.167969 260.210938 L 244.167969 221.332031 L 236.886719 221.332031 L 236.886719 260.210938 C 236.886719 264.238281 233.609375 267.492188 229.605469 267.492188 C 225.578125 267.492188 222.324219 264.238281 222.324219 260.210938 L 222.324219 221.332031 L 213.320312 221.332031 C 211.746094 221.332031 210.578125 219.824219 210.992188 218.273438 L 224.195312 168.90625 C 224.171875 168.132812 223.515625 167.5 222.738281 167.5 C 222.15625 167.5 221.644531 167.839844 221.429688 168.351562 L 211.792969 204.316406 C 210.917969 207.546875 207.59375 209.460938 204.367188 208.613281 C 201.113281 207.738281 199.195312 204.414062 200.070312 201.1875 L 212.738281 153.789062 C 214.730469 146.363281 221.453125 141.191406 229.167969 141.191406 L 251.886719 141.191406 C 259.578125 141.191406 266.328125 146.363281 268.316406 153.789062 Z M 191.042969 107.3125 L 191.042969 267.492188 C 191.042969 269.507812 189.417969 271.132812 187.402344 271.132812 C 185.386719 271.132812 183.761719 269.507812 183.761719 267.492188 L 183.761719 107.3125 C 183.761719 105.296875 185.386719 103.671875 187.402344 103.671875 C 189.417969 103.671875 191.042969 105.296875 191.042969 107.3125 Z M 191.042969 107.3125 "/></g></g></svg>