<svg xmlns="http://www.w3.org/2000/svg" xmlns:xlink="http://www.w3.org/1999/xlink" width="100" zoomAndPan="magnify" viewBox="0 0 75 74.999997" height="100" preserveAspectRatio="xMidYMid meet" version="1.2"><defs><clipPath id="d28e2b5322"><path d="M 37.5 0 C 16.789062 0 0 16.789062 0 37.5 C 0 58.210938 16.789062 75 37.5 75 C 58.210938 75 75 58.210938 75 37.5 C 75 16.789062 58.210938 0 37.5 0 Z M 37.5 0 "/></clipPath><clipPath id="e55a5dc2b5"><path d="M 7.5 24 L 43 24 L 43 50.902344 L 7.5 50.902344 Z M 7.5 24 "/></clipPath><clipPath id="71b7395f09"><path d="M 44 24 L 67 24 L 67 50.902344 L 44 50.902344 Z M 44 24 "/></clipPath><clipPath id="325ef3ccae"><path d="M 43 23.902344 L 67.5 23.902344 L 67.5 50.902344 L 43 50.902344 Z M 43 23.902344 "/></clipPath></defs><g id="31515f17cd"><g clip-rule="nonzero" clip-path="url(#d28e2b5322)"><rect x="0" width="75" y="0" height="74.999997" style="fill:#1f1f1f;fill-opacity:1;stroke:none;"/></g><path style=" stroke:none;fill-rule:nonzero;fill:#ff005a;fill-opacity:1;" d="M 41.9375 25.296875 L 35.054688 49.515625 L 31.464844 49.515625 L 25.226562 30.726562 L 19.4375 49.515625 L 15.753906 49.515625 L 8.496094 25.296875 L 12.210938 25.296875 L 17.9375 44.921875 L 24.003906 25.296875 L 26.917969 25.296875 L 33.457031 44.921875 L 38.789062 25.296875 L 41.9375 25.296875 "/><g clip-rule="nonzero" clip-path="url(#e55a5dc2b5)"><path style=" stroke:none;fill-rule:nonzero;fill:#ff005a;fill-opacity:1;" d="M 32.113281 48.625 L 34.378906 48.625 L 40.753906 26.191406 L 39.472656 26.191406 L 34.320312 45.15625 C 34.21875 45.535156 33.878906 45.804688 33.484375 45.8125 C 33.085938 45.824219 32.734375 45.578125 32.609375 45.203125 L 26.277344 26.191406 L 24.664062 26.191406 L 18.789062 45.183594 C 18.675781 45.5625 18.324219 45.816406 17.929688 45.8125 C 17.535156 45.8125 17.191406 45.550781 17.078125 45.171875 L 11.542969 26.191406 L 9.695312 26.191406 L 16.417969 48.625 L 18.777344 48.625 L 24.371094 30.464844 C 24.488281 30.089844 24.828125 29.835938 25.214844 29.832031 L 25.226562 29.832031 C 25.613281 29.832031 25.953125 30.078125 26.074219 30.445312 Z M 35.054688 50.410156 L 31.464844 50.410156 C 31.082031 50.410156 30.738281 50.164062 30.617188 49.796875 L 25.257812 33.65625 L 20.292969 49.78125 C 20.175781 50.15625 19.832031 50.410156 19.4375 50.410156 L 15.753906 50.410156 C 15.359375 50.410156 15.011719 50.152344 14.898438 49.773438 L 7.640625 25.554688 C 7.558594 25.28125 7.609375 24.988281 7.777344 24.761719 C 7.949219 24.535156 8.214844 24.402344 8.496094 24.402344 L 12.210938 24.402344 C 12.609375 24.402344 12.960938 24.664062 13.070312 25.046875 L 17.960938 41.816406 L 23.152344 25.03125 C 23.265625 24.660156 23.613281 24.402344 24.003906 24.402344 L 26.917969 24.402344 C 27.304688 24.402344 27.644531 24.648438 27.765625 25.015625 L 33.371094 41.832031 L 37.929688 25.0625 C 38.035156 24.671875 38.386719 24.402344 38.789062 24.402344 L 41.9375 24.402344 C 42.214844 24.402344 42.480469 24.535156 42.648438 24.757812 C 42.816406 24.980469 42.871094 25.269531 42.796875 25.539062 L 35.914062 49.761719 C 35.804688 50.144531 35.453125 50.410156 35.054688 50.410156 "/></g><g clip-rule="nonzero" clip-path="url(#71b7395f09)"><path style=" stroke:none;fill-rule:nonzero;fill:#ff005a;fill-opacity:1;" d="M 62.9375 41.371094 L 66.207031 41.992188 C 64.644531 47.339844 61.109375 50.011719 55.609375 50.011719 C 51.992188 50.011719 49.152344 48.777344 47.09375 46.304688 C 45.035156 43.828125 44.003906 40.785156 44.003906 37.175781 C 44.003906 33.445312 45.078125 30.453125 47.230469 28.191406 C 49.378906 25.929688 52.265625 24.800781 55.878906 24.800781 C 61.242188 24.800781 64.683594 27.398438 66.207031 32.589844 L 62.835938 33.15625 C 61.605469 29.300781 59.28125 27.371094 55.859375 27.371094 C 53.332031 27.371094 51.375 28.269531 49.984375 30.058594 C 48.59375 31.851562 47.898438 34.371094 47.898438 37.609375 C 47.898438 40.578125 48.613281 42.960938 50.035156 44.753906 C 51.460938 46.542969 53.347656 47.441406 55.691406 47.441406 C 59.335938 47.441406 61.753906 45.417969 62.9375 41.371094 "/></g><g clip-rule="nonzero" clip-path="url(#325ef3ccae)"><path style=" stroke:none;fill-rule:nonzero;fill:#ff005a;fill-opacity:1;" d="M 55.878906 25.691406 C 52.488281 25.691406 49.871094 26.710938 47.878906 28.808594 C 45.902344 30.886719 44.898438 33.699219 44.898438 37.175781 C 44.898438 40.554688 45.867188 43.433594 47.78125 45.730469 C 49.679688 48.011719 52.238281 49.121094 55.609375 49.121094 C 60.378906 49.121094 63.472656 47.011719 65.042969 42.679688 L 63.546875 42.398438 C 62.90625 44.207031 61.988281 45.621094 60.8125 46.609375 C 59.441406 47.753906 57.722656 48.335938 55.691406 48.335938 C 53.070312 48.335938 50.933594 47.316406 49.335938 45.308594 C 47.789062 43.363281 47.007812 40.773438 47.007812 37.609375 C 47.007812 34.179688 47.769531 31.457031 49.277344 29.511719 C 50.839844 27.5 53.054688 26.480469 55.859375 26.480469 C 57.777344 26.480469 59.417969 27.035156 60.738281 28.132812 C 61.875 29.070312 62.777344 30.421875 63.429688 32.148438 L 65.035156 31.878906 C 63.503906 27.71875 60.5 25.691406 55.878906 25.691406 Z M 55.609375 50.90625 C 51.730469 50.90625 48.632812 49.550781 46.40625 46.875 C 44.21875 44.246094 43.109375 40.984375 43.109375 37.175781 C 43.109375 33.226562 44.277344 29.996094 46.582031 27.574219 C 48.898438 25.140625 52.027344 23.90625 55.878906 23.90625 C 58.746094 23.90625 61.148438 24.621094 63.023438 26.035156 C 64.890625 27.445312 66.25 29.566406 67.0625 32.335938 C 67.136719 32.582031 67.097656 32.847656 66.964844 33.0625 C 66.828125 33.28125 66.605469 33.425781 66.355469 33.46875 L 62.984375 34.039062 C 62.546875 34.113281 62.117188 33.851562 61.984375 33.429688 C 60.875 29.953125 58.875 28.265625 55.859375 28.265625 C 53.601562 28.265625 51.910156 29.03125 50.691406 30.609375 C 49.433594 32.230469 48.792969 34.585938 48.792969 37.609375 C 48.792969 40.359375 49.445312 42.574219 50.734375 44.195312 C 51.992188 45.777344 53.613281 46.546875 55.691406 46.546875 C 58.921875 46.546875 61.011719 44.773438 62.082031 41.121094 C 62.210938 40.679688 62.65625 40.410156 63.105469 40.496094 L 66.375 41.117188 C 66.621094 41.164062 66.835938 41.3125 66.96875 41.527344 C 67.101562 41.742188 67.136719 42.003906 67.0625 42.242188 C 66.230469 45.09375 64.835938 47.273438 62.921875 48.722656 C 61.007812 50.171875 58.546875 50.90625 55.609375 50.90625 "/></g></g></svg>